<?xml version="1.0" standalone="no"?>
<!DOCTYPE svg PUBLIC "-//W3C//DTD SVG 20010904//EN"
 "http://www.w3.org/TR/2001/REC-SVG-20010904/DTD/svg10.dtd">
<svg version="1.0" xmlns="http://www.w3.org/2000/svg"
 width="280.000000pt" height="280.000000pt" viewBox="0 0 280.000000 280.000000"
 preserveAspectRatio="xMidYMid meet">
<metadata>
Created by potrace 1.14, written by Peter Selinger 2001-2017
</metadata>
<g transform="translate(0.000000,280.000000) scale(0.100000,-0.100000)"
fill="#000000" stroke="none">
<path d="M417 1796 c-10 -8 -83 -51 -163 -97 -111 -63 -144 -87 -145 -103 0
-12 0 -102 0 -200 0 -176 4 -195 34 -196 4 0 7 88 7 195 0 177 2 196 18 202 9
4 19 9 22 13 3 4 41 26 84 49 44 24 96 54 117 67 43 27 66 30 92 10 16 -12 2
-22 -130 -97 l-148 -84 0 -193 c0 -107 2 -197 5 -200 5 -7 65 -42 72 -42 2 0
3 86 3 191 l0 192 35 22 c19 12 60 35 90 52 30 16 78 44 106 61 57 36 72 38
99 18 17 -12 8 -19 -103 -85 -66 -39 -125 -71 -131 -71 -6 0 -11 -4 -11 -10 0
-5 -6 -10 -14 -10 -11 0 -13 -37 -12 -202 1 -194 2 -203 21 -207 11 -2 23 -8
27 -14 3 -6 14 -12 22 -13 14 -2 16 21 16 191 l0 193 33 16 c17 9 46 25 62 35
182 108 195 114 222 102 13 -6 22 -15 19 -20 -6 -9 -193 -121 -202 -121 -6 0
-67 -43 -74 -52 -6 -8 -5 -376 1 -382 6 -6 312 173 325 190 8 10 11 77 10 205
l-1 190 -44 24 c-24 14 -55 24 -70 23 -19 -2 -25 1 -24 12 2 9 -19 29 -52 48
-42 25 -59 31 -73 23 -15 -8 -18 -6 -18 11 1 15 -13 29 -49 49 -58 33 -55 32
-78 15z m283 -376 c0 -10 -87 -67 -132 -88 -23 -9 -28 -9 -28 2 0 7 10 18 23
24 12 6 45 25 72 41 55 32 65 36 65 21z m-5 -70 c3 -5 -29 -30 -72 -55 -72
-42 -106 -47 -69 -9 9 8 16 13 16 10 0 -3 24 11 52 30 57 37 64 39 73 24z m75
-30 c0 -16 -217 -146 -227 -136 -11 11 15 35 65 61 31 16 77 42 101 57 48 30
61 34 61 18z m0 -69 c0 -9 -110 -81 -123 -81 -4 0 -26 -13 -49 -29 -29 -20
-46 -26 -53 -20 -7 7 -5 13 5 20 82 52 198 118 208 118 6 1 12 -3 12 -8z"/>
<path d="M2609 1515 c-3 -2 -21 -5 -42 -7 -20 -1 -37 -5 -37 -9 0 -4 -7 -14
-15 -22 -17 -17 -28 -67 -14 -67 5 0 8 -4 7 -9 -4 -13 40 -49 78 -63 19 -7 34
-18 34 -25 0 -19 -57 -16 -68 4 -9 16 -12 16 -36 0 -26 -18 -35 -37 -15 -37 5
0 7 -4 4 -10 -3 -5 -1 -10 5 -10 6 0 8 -4 5 -10 -3 -6 1 -7 9 -4 9 3 16 1 16
-5 0 -15 91 -14 110 2 21 16 42 69 38 93 -5 33 -73 83 -81 61 -4 -9 -6 -9 -6
1 -1 6 -8 12 -16 12 -18 0 -20 26 -2 33 6 2 19 -2 27 -9 20 -17 52 -9 69 18 7
11 8 17 2 13 -6 -3 -11 1 -11 9 0 9 -5 16 -12 16 -6 0 -19 7 -28 15 -9 8 -19
13 -21 10z"/>
<path d="M1143 1496 c-24 -6 -49 -20 -56 -31 -18 -26 -21 -128 -4 -118 8 4 8
1 -1 -9 -9 -11 -10 -18 -2 -23 7 -4 7 -12 0 -26 -8 -14 -7 -19 1 -19 6 0 9 -8
6 -19 -3 -14 1 -18 19 -18 13 0 25 5 25 11 1 6 2 23 3 38 1 15 5 30 9 34 11
11 38 14 32 4 -3 -4 2 -10 10 -14 8 -3 15 -12 15 -21 0 -8 4 -15 9 -15 5 0 11
-8 13 -18 3 -10 12 -19 21 -19 9 0 14 4 11 9 -3 4 2 8 11 8 12 0 15 5 10 18
-19 45 -25 77 -15 80 5 2 10 10 10 18 0 8 4 14 9 14 4 0 5 19 1 42 -6 29 -17
50 -37 65 -31 25 -38 26 -100 9z m73 -84 c-4 -24 -54 -35 -65 -14 -14 26 -14
34 0 42 19 12 67 -9 65 -28z"/>
<path d="M1401 1497 c-6 -8 -14 -28 -17 -45 -4 -20 -11 -29 -18 -25 -6 3 -8 3
-4 -2 4 -4 1 -22 -6 -39 -7 -17 -11 -36 -9 -43 2 -6 -1 -14 -6 -18 -6 -3 -11
-19 -11 -35 0 -33 28 -49 45 -26 7 9 31 16 60 17 42 3 50 0 71 -27 13 -16 24
-23 24 -15 0 10 3 11 13 2 11 -8 13 -4 13 23 0 19 -4 32 -8 30 -5 -3 -8 1 -9
8 0 7 -3 27 -5 43 -3 17 -6 36 -6 43 -1 6 -5 12 -10 12 -4 0 -8 11 -8 25 0 14
-4 25 -8 25 -4 0 -13 14 -19 30 -9 24 -17 30 -41 30 -16 0 -35 -6 -41 -13z
m59 -133 c0 -8 -9 -14 -19 -14 -14 0 -18 5 -14 19 6 22 33 17 33 -5z"/>
<path d="M1590 1501 c0 -6 5 -13 10 -16 8 -5 8 -11 0 -20 -7 -9 -7 -15 -1 -19
6 -4 9 -47 8 -101 -1 -52 2 -95 6 -95 5 0 5 -4 2 -10 -4 -6 2 -7 17 -1 19 7
23 16 23 47 0 39 0 39 43 42 23 2 42 8 42 13 0 6 4 8 9 5 15 -9 41 41 41 78 0
28 -7 40 -33 60 -29 22 -45 26 -100 26 -37 0 -67 -4 -67 -9z m135 -68 c15 -9
17 -14 7 -25 -6 -8 -9 -17 -6 -20 2 -3 -7 -8 -21 -10 -34 -7 -55 11 -49 42 6
28 34 34 69 13z"/>
<path d="M1820 1460 c0 -33 4 -50 13 -50 8 0 7 -4 -3 -10 -12 -8 -13 -13 -2
-30 7 -11 9 -20 5 -20 -5 0 -8 -11 -8 -24 0 -13 3 -22 8 -19 4 2 7 -1 7 -6 0
-6 -6 -11 -12 -11 -9 0 -8 -4 2 -10 8 -5 11 -10 6 -10 -6 0 -5 -5 1 -11 16
-16 143 -15 154 2 16 25 3 34 -49 33 -29 0 -52 2 -53 5 -5 37 -4 51 5 51 6 0
4 5 -4 10 -8 5 -10 10 -4 10 6 0 12 11 12 25 0 13 -5 22 -10 19 -7 -4 -7 0 0
12 9 19 9 42 -2 70 -3 8 -19 14 -36 14 -29 0 -30 -1 -30 -50z"/>
<path d="M2033 1498 c-5 -7 -8 -29 -7 -48 1 -19 3 -76 4 -126 l2 -91 82 -2 82
-2 2 36 3 35 -49 0 c-52 0 -79 17 -58 36 6 6 26 10 44 9 41 -2 58 16 42 44
-11 21 -29 24 -42 6 -5 -6 -8 -5 -8 2 0 7 -6 10 -13 7 -8 -3 -19 2 -26 10 -16
19 2 30 52 32 57 2 60 3 53 19 -3 8 -1 15 4 15 5 0 7 6 4 14 -7 19 -157 22
-171 4z"/>
<path d="M2240 1500 c8 -5 10 -10 4 -10 -14 0 -14 -30 0 -30 6 0 4 -5 -4 -10
-8 -5 -10 -10 -5 -10 12 0 14 -115 2 -126 -3 -4 -2 -15 3 -25 7 -12 6 -19 -3
-22 -9 -4 -9 -6 1 -6 7 -1 11 -5 7 -10 -3 -5 -1 -12 5 -16 5 -3 10 0 10 7 0
10 2 10 8 0 7 -9 13 -8 27 8 10 11 14 20 8 20 -5 0 -10 7 -10 15 0 8 4 12 8
10 11 -7 6 49 -6 57 -6 5 -4 8 5 8 13 0 13 1 0 10 -12 8 -10 10 8 10 13 0 20
-4 17 -10 -3 -5 -2 -10 2 -10 5 0 14 -9 21 -21 11 -17 11 -20 0 -13 -7 4 -1
-7 15 -25 15 -18 27 -37 27 -42 0 -5 7 -9 16 -9 8 0 13 -4 9 -9 -3 -6 4 -9 15
-8 22 1 23 4 25 99 1 38 4 70 6 72 2 2 2 27 1 54 -4 48 -4 49 -35 48 -31 -1
-32 -3 -34 -45 -2 -24 2 -50 7 -56 7 -9 6 -16 -5 -25 -12 -10 -15 -10 -15 0 0
7 -6 10 -14 7 -9 -4 -12 2 -10 19 1 13 -2 24 -7 24 -5 0 -9 7 -9 15 0 8 -5 15
-11 15 -5 0 -7 5 -4 10 3 6 1 10 -4 10 -6 0 -11 7 -11 15 0 11 -11 15 -42 15
-32 0 -39 -3 -28 -10z"/>
</g>
</svg>
